<?xml version="1.0" encoding="UTF-8"?>
<!DOCTYPE svg PUBLIC "-//W3C//DTD SVG 1.1//EN" "http://www.w3.org/Graphics/SVG/1.1/DTD/svg11.dtd">
<!-- Creator: CorelDRAW 2020 (64-Bit) -->
<?xml-stylesheet href="skype-blue.css" type="text/css"?>
<svg xmlns="http://www.w3.org/2000/svg" xml:space="preserve" width="40px" height="40px" version="1.1" style="shape-rendering:geometricPrecision; text-rendering:geometricPrecision; image-rendering:optimizeQuality; fill-rule:evenodd; clip-rule:evenodd"
viewBox="0 0 40 40"
 xmlns:xlink="http://www.w3.org/1999/xlink"
 xmlns:xodm="http://www.corel.com/coreldraw/odm/2003">
 <g id="Слой_x0020_1">
  <metadata id="CorelCorpID_0Corel-Layer"/>
  <path class="fil0" d="M11.84 0.39c2.18,0 4.29,0.61 6.11,1.73 0.64,-0.06 1.3,-0.1 1.95,-0.1 4.85,0 9.52,1.93 12.96,5.35 3.43,3.42 5.37,8.07 5.37,12.92 0,0.85 -0.06,1.7 -0.18,2.54 0.97,1.72 1.48,3.67 1.49,5.65 0,0 0,0 0,0 0,3.06 -1.23,6 -3.4,8.16 -2.17,2.16 -5.11,3.38 -8.17,3.38 0,0 -0.01,0 -0.01,0 -2.08,0 -4.11,-0.56 -5.87,-1.6 -0.72,0.09 -1.45,0.13 -2.18,0.13 -4.86,0 -9.52,-1.92 -12.97,-5.35 -3.42,-3.42 -5.36,-8.07 -5.36,-12.91 0,-0.9 0.06,-1.8 0.2,-2.68 -0.99,-1.73 -1.51,-3.7 -1.51,-5.69 0,-3.06 1.22,-6 3.39,-8.15 2.17,-2.17 5.11,-3.38 8.17,-3.38l0.01 0zm-7.08 20.74c0.45,0.77 1.07,1.42 1.81,1.9 0.98,0.64 2.03,1.19 3.11,1.62 1.22,0.51 2.17,0.94 2.84,1.29 0.57,0.28 1.08,0.66 1.52,1.11 0.34,0.36 0.52,0.82 0.52,1.31 0,0.03 0.01,0.06 0.01,0.09 0,0.67 -0.31,1.3 -0.84,1.7 -0.72,0.49 -1.58,0.72 -2.45,0.66 -0.02,0 -0.05,0 -0.07,0 -0.87,0 -1.73,-0.18 -2.52,-0.51 -0.44,-0.2 -0.89,-0.41 -1.32,-0.63 -0.45,-0.24 -0.95,-0.36 -1.46,-0.37 -0.02,0 -0.05,0 -0.07,0 -0.43,0 -0.84,0.15 -1.17,0.44 -0.31,0.29 -0.48,0.7 -0.48,1.13 0,0.02 0,0.05 0,0.08 0,0.02 0,0.03 0,0.05 0,0.41 0.13,0.81 0.37,1.15 0.3,0.37 0.68,0.68 1.13,0.87 1.59,0.69 3.3,1.05 5.04,1.05 0.14,0 0.29,-0.01 0.44,-0.01 0.07,0 0.15,0 0.22,0 1.29,0 2.58,-0.22 3.8,-0.66 1.07,-0.38 2,-1.07 2.67,-1.98 0.66,-0.97 1,-2.12 0.96,-3.29 0,-0.04 0,-0.09 0,-0.14 0,-0.9 -0.24,-1.8 -0.69,-2.58 -0.49,-0.79 -1.14,-1.46 -1.91,-1.97 2,-1.3 3.73,-2.99 5.07,-4.97 -0.12,-0.06 -0.24,-0.11 -0.36,-0.14 -0.84,-0.35 -1.69,-0.72 -2.51,-1.11 -0.5,-0.24 -0.96,-0.56 -1.34,-0.96 -0.32,-0.33 -0.49,-0.78 -0.49,-1.24 0,-0.01 0,-0.01 0,-0.02 -0.01,-0.03 -0.01,-0.06 -0.01,-0.09 0,-0.69 0.37,-1.34 0.96,-1.7 0.67,-0.4 1.45,-0.61 2.23,-0.61 0.06,0 0.11,0 0.17,0 0.64,-0.01 1.28,0.07 1.91,0.24 0.68,0.19 1.34,0.43 1.99,0.72 0.26,0.12 0.54,0.19 0.83,0.19 0.01,0 0.02,0 0.03,0 0.42,0 0.81,-0.17 1.09,-0.47 0.29,-0.32 0.45,-0.73 0.45,-1.15 0,-0.03 0,-0.05 -0.01,-0.08 0,-0.01 0,-0.02 0,-0.03 0,-0.42 -0.15,-0.83 -0.42,-1.15 -0.38,-0.4 -0.85,-0.7 -1.37,-0.87 -0.57,-0.21 -1.16,-0.37 -1.76,-0.46 -0.79,-0.13 -1.59,-0.19 -2.38,-0.19 -0.05,0 -0.1,0 -0.15,0 -0.02,0 -0.05,0 -0.07,0 -1.27,0 -2.53,0.22 -3.73,0.64 -1.13,0.38 -2.13,1.05 -2.91,1.94 -0.72,0.85 -1.12,1.94 -1.12,3.05 0,0.05 0,0.09 0,0.14 -0.02,0.91 0.19,1.82 0.62,2.63l-8.18 3.38z"/>
 </g>
</svg>
