<svg xmlns="http://www.w3.org/2000/svg" xmlns:xlink="http://www.w3.org/1999/xlink" viewBox="0 0 264.3 74.55"><defs><style>.cls-1{fill:#319b42;}.cls-2{fill:url(#New_Gradient_Swatch_9);}</style><linearGradient id="New_Gradient_Swatch_9" x1="186.37" y1="15.25" x2="264.3" y2="15.25" gradientUnits="userSpaceOnUse"><stop offset="0" stop-color="#00a3e1"/><stop offset="0.3" stop-color="#009add"/><stop offset="0.8" stop-color="#0082d4"/><stop offset="1" stop-color="#0076cf"/></linearGradient></defs><title>mir-logo</title><g id="Слой_2" data-name="Слой 2"><g id="Logo"><path class="cls-1" d="M147.15,7.87,130.46,44.05h-1.7V0H105V74.55h20.13a13.57,13.57,0,0,0,12.31-7.88l16.7-36.17h1.69V74.55h23.72V0H159.46A13.56,13.56,0,0,0,147.15,7.87Z"/><path class="cls-1" d="M58.17,9.8,48.29,44.05h-1.7L36.71,9.8a13.55,13.55,0,0,0-13-9.8H0V74.55H23.72v-44h1.69L39,74.55H55.91l13.55-44h1.7V74.55H94.88V0H71.19A13.55,13.55,0,0,0,58.17,9.8Z"/><path class="cls-1" d="M189.76,33.88V74.55h23.67V50.83h25.46a25.41,25.41,0,0,0,23.94-16.95Z"/><path class="cls-2" d="M238.89,0H186.37A37.27,37.27,0,0,0,223,30.5h40.78A25.43,25.43,0,0,0,238.89,0Z"/></g></g></svg>