<svg xmlns="http://www.w3.org/2000/svg" xmlns:xlink="http://www.w3.org/1999/xlink" viewBox="0 0 258.27 83.41"><defs><style>.cls-1{fill:none;}.cls-2{clip-path:url(#clip-path);}.cls-3{fill:url(#linear-gradient);}</style><clipPath id="clip-path" transform="translate(0 0)"><path class="cls-1" d="M76.14,1.48,54.42,56.38,45.63,9.7A9.73,9.73,0,0,0,36,1.48H.49L0,3.81C7.29,5.4,15.57,8,20.59,10.68c3.07,1.67,3.95,3.12,5,7.09L42.19,82.15h22L98.06,1.48Zm30.87,0L89.75,82.15h20.87L127.88,1.48ZM226.67,23.27,233,53.56H215.68ZM223.61,1.48a9.47,9.47,0,0,0-8.88,5.91L183.41,82.15h21.91l4.35-12.05h26.78L239,82.15h19.3L241.42,1.48ZM133.56,26.66c-.13,11.63,10.37,18.1,18.28,22,8.12,4,10.85,6.49,10.82,10-.06,5.41-6.49,7.8-12.49,7.89-10.49.17-16.58-2.83-21.44-5.09L125,79.12c4.87,2.24,13.87,4.19,23.2,4.29,21.93,0,36.27-10.83,36.34-27.6.09-21.29-29.44-22.47-29.24-32,.06-2.89,2.82-6,8.85-6.76a39.37,39.37,0,0,1,20.57,3.61l3.67-17.1A55.88,55.88,0,0,0,168.83,0c-20.63,0-35.15,11-35.27,26.66"/></clipPath><linearGradient id="linear-gradient" x1="-178.01" y1="437.94" x2="-175.97" y2="437.94" gradientTransform="matrix(126.55, 0, 0, -126.55, 22526, 55460.55)" gradientUnits="userSpaceOnUse"><stop offset="0" stop-color="#241f5d"/><stop offset="1" stop-color="#034ea1"/></linearGradient></defs><title>visa-logo</title><g id="Слой_2" data-name="Слой 2"><g id="Layer_1" data-name="Layer 1"><g class="cls-2"><rect id="_Контур_" data-name="&lt;Контур&gt;" class="cls-3" width="258.27" height="83.41"/></g></g></g></svg>